<?xml version="1.0" encoding="UTF-8" standalone="no"?>
<svg
  xmlns="http://www.w3.org/2000/svg"
  id="svg883"
  version="1.1"
  viewBox="0 0 127.36905 127.36905"
  height="127.36905mm"
  width="127.36905mm">
  <g
    transform="translate(-18.898796,-135.53751)"
    id="layer6">
    <path
      id="path850"
      d="M 146.26785,199.22203 A 63.684525,63.684525 0 0 1 82.583321,262.90656 63.684525,63.684525 0 0 1 18.898796,199.22203 63.684525,63.684525 0 0 1 82.583321,135.53751 63.684525,63.684525 0 0 1 146.26785,199.22203 Z"
      style="opacity:1;fill:#6495ed;fill-opacity:1;stroke:none;stroke-width:7.78735399;stroke-miterlimit:4;stroke-dasharray:none;stroke-opacity:1"/>
  </g>
  <g
    transform="translate(-18.898796,-135.53751)"
    id="layer1">
    <g
      id="text821-1-7"
      style="font-style:normal;font-variant:normal;font-weight:normal;font-stretch:normal;font-size:36.14329147px;line-height:1.25;font-family:'Bauhaus 93';-inkscape-font-specification:'Bauhaus 93, ';letter-spacing:0px;word-spacing:0px;fill:#ffffff;fill-opacity:1;stroke:none;stroke-width:0.42355418">
      <path
        id="path855"
        style="font-size:36.14329147px;text-align:center;text-anchor:middle;fill:#ffffff;stroke-width:0.42355418"
        d="m 67.239841,173.22568 -6.353313,10.92417 6.318017,13.16547 h -8.04753 l -5.45326,-13.30666 6.176832,-10.78298 z m -13.747863,0 v 24.08964 h -7.165126 v -24.08964 z"/>
      <path
        id="path857"
        style="font-size:36.14329147px;text-align:center;text-anchor:middle;fill:#ffffff;stroke-width:0.42355418"
        d="m 83.634918,186.97354 h 4.482615 q 0.07059,0.82946 0.07059,1.16478 0,2.13541 -1.041237,4.02376 l 3.388434,5.15324 h -6.282721 l -0.705924,-0.84711 q -2.064826,1.44715 -4.306134,1.44715 -3.247249,0 -5.541501,-2.24131 -2.276604,-2.25896 -2.276604,-5.45326 0,-3.61786 3.141361,-6.19448 -1.694217,-2.15307 -1.694217,-4.42967 0,-2.87664 2.011882,-4.92382 2.029531,-2.04718 4.870874,-2.04718 2.806046,0 4.835577,1.97659 2.02953,1.97659 2.02953,4.69439 0,0.37061 -0.0353,0.9177 h -5.45326 q -0.141185,-1.8001 -1.253015,-1.8001 -1.041237,0 -1.041237,1.00594 0,0.35296 0.300017,0.79416 z m -5.717982,1.62363 q -0.864756,0.63533 -0.864756,1.48244 0,0.81181 0.511794,1.37655 0.529443,0.56474 1.288311,0.56474 0.564739,0 1.217718,-0.4765 z"/>
      <path
        id="path859"
        style="font-size:36.14329147px;text-align:center;text-anchor:middle;fill:#ffffff;stroke-width:0.42355418"
        d="m 104.31848,179.70253 v 17.61279 h -7.165124 v -24.08964 h 9.194654 q 4.20025,0 6.51215,2.08247 2.57662,2.32955 2.57662,5.91211 0,3.65316 -3.19431,6.15919 l 4.12966,9.93587 h -7.51809 l -3.47667,-7.76516 v -6.19448 h 0.56474 q 2.25895,0 2.25895,-1.94129 0,-1.71186 -2.61192,-1.71186 z"/>
    </g>
  </g>
  <g
    transform="translate(-18.898796,-135.53751)"
    id="layer3"/>
  <g
    transform="translate(-18.898796,-135.53751)"
    id="layer4">
    <path
      id="path2129"
      d="m 125.28425,236.26394 c -0.64894,-0.0201 -0.94416,-0.053 -1.80098,-0.20071 -0.30767,-0.0531 -0.84569,-0.19214 -1.02868,-0.266 -0.0809,-0.0327 -0.17559,-0.0583 -0.21035,-0.0569 -0.0348,0.002 -0.10507,-0.0239 -0.15615,-0.0562 -0.051,-0.0322 -0.15547,-0.0713 -0.23194,-0.0868 -0.14594,-0.0296 -1.0347,-0.4203 -1.35617,-0.59617 -0.10335,-0.0565 -0.21937,-0.11625 -0.25794,-0.13269 -0.25132,-0.10732 -1.46653,-0.94852 -1.91181,-1.32335 -0.49671,-0.41812 -2.08172,-1.9002 -2.57696,-2.40958 -0.28455,-0.29269 -0.53038,-0.54202 -0.54631,-0.55405 -0.0159,-0.0122 -0.0716,-0.0735 -0.1237,-0.13633 -0.0919,-0.11113 -0.5489,-0.60589 -0.69368,-0.75117 -0.0395,-0.0395 -0.21161,-0.23114 -0.3826,-0.42572 -0.17098,-0.1946 -0.32457,-0.36363 -0.34126,-0.37563 -0.0166,-0.0123 -0.21034,-0.23228 -0.4303,-0.48948 -0.21997,-0.25721 -0.4135,-0.47748 -0.43009,-0.48949 -0.0164,-0.0123 -0.20207,-0.22225 -0.41217,-0.46717 -0.21011,-0.24493 -0.41077,-0.4734 -0.44591,-0.50772 -0.0352,-0.0343 -0.15421,-0.17462 -0.26447,-0.31184 -0.11032,-0.13723 -0.22718,-0.26502 -0.25965,-0.28398 -0.0326,-0.019 -0.0599,-0.0548 -0.0608,-0.0797 -0.001,-0.025 -0.0611,-0.0991 -0.13356,-0.16505 -0.0724,-0.0659 -0.19579,-0.20026 -0.27399,-0.29846 -0.0782,-0.0982 -0.17525,-0.21115 -0.21566,-0.25102 -0.0404,-0.0399 -0.13839,-0.14767 -0.21776,-0.23955 -0.0794,-0.0918 -0.16906,-0.19079 -0.19932,-0.21979 -0.0303,-0.029 -0.16986,-0.1812 -0.3101,-0.3382 -0.14029,-0.15699 -0.27734,-0.30766 -0.30456,-0.3348 -0.0272,-0.0272 -0.22176,-0.22625 -0.43229,-0.44249 -0.51456,-0.52843 -1.63551,-1.56821 -2.06861,-1.91877 -0.19313,-0.15632 -0.40669,-0.33119 -0.47459,-0.38858 -0.068,-0.0574 -0.17638,-0.13563 -0.24106,-0.17385 -0.0647,-0.0383 -0.30169,-0.20261 -0.5267,-0.36528 -0.22501,-0.16268 -0.42081,-0.29534 -0.4351,-0.2948 -0.0143,1.9e-4 -0.14852,-0.075 -0.29824,-0.16786 -0.29642,-0.18383 -0.64105,-0.38505 -0.78917,-0.46077 -0.87334,-0.44647 -1.64182,-0.78519 -1.77032,-0.78031 -0.0373,0.001 -0.0754,-0.0141 -0.0846,-0.0345 -0.0166,-0.0372 -0.28304,-0.12655 -0.71418,-0.23975 -0.57894,-0.15192 -0.92232,-0.22564 -1.45876,-0.31305 -0.514444,-0.0839 -0.663634,-0.0889 -1.381294,-0.0472 -0.7843,0.0456 -0.81136,0.0504 -1.07489,0.19353 -0.46748,0.2538 -0.7632,0.19521 -0.99864,-0.19783 -0.0905,-0.15116 -0.10769,-0.23025 -0.0942,-0.43328 0.0202,-0.30523 0.19543,-0.68863 0.38494,-0.84242 l 0.14176,-0.11508 1.49283,-0.043 c 0.82108,-0.0232 1.762274,-0.032 2.091554,-0.0186 2.16715,0.0881 3.1537,0.15225 3.48036,0.22647 0.0895,0.02 0.32842,0.0513 0.53143,0.069 0.58525,0.0509 1.28895,0.14755 1.34051,0.18425 0.026,0.0184 0.12737,0.045 0.22529,0.0588 0.098,0.0135 0.2441,0.0512 0.325,0.0824 0.0809,0.0315 0.26192,0.0867 0.4024,0.12284 0.14055,0.0357 0.3395,0.10078 0.4423,0.1435 0.10275,0.0428 0.2919,0.11855 0.42027,0.16845 0.27322,0.10627 0.90111,0.38835 1.16952,0.5255 0.10314,0.0527 0.28249,0.14314 0.3985,0.20088 0.177,0.0881 0.51148,0.27121 0.95978,0.52532 0.0501,0.0284 0.25881,0.15391 0.46381,0.27891 0.20496,0.12502 0.38105,0.22694 0.39126,0.22655 0.0108,1.1e-4 0.12972,0.0714 0.26558,0.15951 0.13589,0.0882 0.37419,0.23943 0.52962,0.33626 0.15542,0.0968 0.30774,0.19579 0.33851,0.21991 0.0307,0.0241 0.16443,0.11218 0.29701,0.19565 0.28675,0.18054 1.08187,0.73058 1.34201,0.92838 0.10146,0.0771 0.21825,0.15837 0.25955,0.1805 0.0413,0.0221 0.12864,0.0866 0.19418,0.14321 0.0655,0.0566 0.20386,0.1561 0.30749,0.22103 0.1037,0.0649 0.19926,0.13075 0.21249,0.14636 0.0135,0.0156 0.19489,0.1536 0.40367,0.30669 0.2088,0.15309 0.41104,0.30235 0.44945,0.33168 0.22836,0.17453 1.18641,0.91345 1.52182,1.17375 0.7685,0.59646 1.43889,1.06178 1.69307,1.17523 0.14151,0.0632 0.29167,0.13112 0.33369,0.15107 0.17986,0.0855 0.64519,0.11681 0.89632,0.0604 0.40437,-0.0907 0.59282,-0.23324 0.90332,-0.68326 0.27892,-0.4042 0.41328,-0.77394 0.5923,-1.62999 0.13695,-0.65482 0.16389,-0.76515 0.22248,-0.91208 0.0323,-0.0809 0.058,-0.16835 0.057,-0.19431 -0.001,-0.0259 0.0225,-0.0759 0.0534,-0.1107 0.0303,-0.0349 0.0923,-0.14374 0.13777,-0.24173 0.0872,-0.18783 0.41858,-0.59819 0.48508,-0.60071 0.0216,-8.9e-4 0.0709,-0.0307 0.10921,-0.0673 0.0386,-0.0362 0.22323,-0.1203 0.41036,-0.18702 l 0.34028,-0.1212 3.95234,-0.14707 3.95236,-0.14707 0.25898,0.11478 c 0.43706,0.19365 0.67635,0.46089 1.03971,1.16122 0.1158,0.22323 0.23183,0.44098 0.25772,0.48394 0.20942,0.34675 0.70573,1.8188 0.80009,2.37285 0.0213,0.12566 0.0797,0.39243 0.12955,0.59288 0.073,0.29318 0.10065,0.62921 0.14163,1.719 0.0452,1.20534 0.0418,1.42333 -0.0318,1.9785 -0.27767,2.09403 -1.07486,3.69677 -2.40089,4.82696 -0.21772,0.18563 -0.41035,0.33797 -0.42802,0.33864 -0.0178,4.8e-4 -0.0637,0.0312 -0.10212,0.0683 -0.25368,0.24265 -1.47991,0.86772 -2.31223,1.17861 -0.99598,0.37209 -2.67996,0.63242 -3.8548,0.59598 z"
      style="fill:#ffffff;stroke-width:0.04595043"/>
  </g>
  <g
    transform="translate(-18.898796,-135.53751)"
    id="layer2">
    <path
      id="path2101"
      d="m 43.339186,164.00112 c 0.17774,-0.99535 0.46802,-1.34152 1.05153,-1.25406 0.44329,0.0667 16.88758,1.23114 36.54281,2.58821 24.890454,1.71853 35.812254,2.63531 35.985434,3.02061 0.43888,0.97647 -0.0717,2.6241 -0.77437,2.49863 -0.36781,-0.0657 -16.331634,-1.21395 -35.475144,-2.5517 -19.14352,-1.33774 -35.42949,-2.54353 -36.19108,-2.67954 -1.23302,-0.22018 -1.35779,-0.39796 -1.13918,-1.62215 z m 10.61813,-2.48649 c -0.12923,-0.88921 0.6912,-11.14821 0.90267,-11.28708 0.39253,-0.25776 51.581614,3.4682 51.840274,3.77336 0.31205,0.36814 -0.4317,11.21478 -0.78594,11.46166 -0.12616,0.0879 -11.255724,-0.62695 -24.732314,-1.58864 -13.47659,-0.9617 -25.09574,-1.75133 -25.8203,-1.7547 -0.80311,-0.004 -1.35144,-0.2393 -1.40439,-0.6046 z"
      style="fill:#ffffff;stroke-width:0.46554264"/>
  </g>
  <g
    transform="translate(-18.898796,-135.53751)"
    id="layer5">
    <g
      id="text842-8-6"
      style="font-style:normal;font-variant:normal;font-weight:normal;font-stretch:normal;font-size:24.96841621px;line-height:1.25;font-family:'Bauhaus 93';-inkscape-font-specification:'Bauhaus 93, ';letter-spacing:0px;word-spacing:0px;fill:#ffffff;fill-opacity:1;stroke:none;stroke-width:0.3901315">
      <path
        id="path862"
        style="font-size:18.72631264px;fill:#ffffff;stroke-width:0.3901315"
        d="m 51.605878,233.80442 v 3.34659 h -1.234401 v 3.25516 h -3.712345 v -7.74472 q 0,-2.18534 1.344125,-3.61176 1.353269,-1.43556 3.401459,-1.43556 2.258496,0 3.776351,1.94761 l -3.044854,2.22192 q -0.256024,-0.71321 -0.905227,-0.71321 -0.859509,0 -0.859509,1.18868 v 1.54529 z"/>
      <path
        id="path864"
        style="font-size:18.72631264px;fill:#ffffff;stroke-width:0.3901315"
        d="m 60.018089,231.09788 q 1.938466,0 3.319166,1.39899 1.389843,1.38984 1.389843,3.33745 0,1.97504 -1.408131,3.36488 -1.398987,1.38985 -3.383172,1.38985 -1.984184,0 -3.392315,-1.38985 -1.408131,-1.39898 -1.408131,-3.36488 0,-2.00247 1.408131,-3.36488 1.408131,-1.37156 3.474609,-1.37156 z m -0.09144,3.37403 q -0.548623,0 -0.932658,0.40232 -0.384036,0.39318 -0.384036,0.96923 0,0.56691 0.384036,0.96924 0.393179,0.40232 0.932658,0.40232 0.548622,0 0.932658,-0.40232 0.393179,-0.40233 0.393179,-0.96924 0,-0.57605 -0.384035,-0.96923 -0.384036,-0.40232 -0.941802,-0.40232 z"/>
      <path
        id="path866"
        style="font-size:18.72631264px;fill:#ffffff;stroke-width:0.3901315"
        d="m 69.198371,227.92501 v 3.4929 h 1.536143 v 3.61176 h -1.536143 q 0,1.0881 0.338318,1.49957 0.34746,0.41147 1.261831,0.41147 v 3.59348 q -0.265167,0.009 -0.393179,0.009 -1.161251,0 -2.19449,-0.53948 -1.024095,-0.53948 -1.645867,-1.46299 -0.786359,-1.17954 -0.786359,-3.12715 v -7.4887 z"/>
      <path
        id="path868"
        style="font-size:18.72631264px;fill:#ffffff;stroke-width:0.3901315"
        d="m 76.732786,231.09788 q 1.938466,0 3.319166,1.39899 1.389843,1.38984 1.389843,3.33745 0,1.97504 -1.408131,3.36488 -1.398987,1.38985 -3.383172,1.38985 -1.984184,0 -3.392315,-1.38985 -1.408131,-1.39898 -1.408131,-3.36488 0,-2.00247 1.408131,-3.36488 1.408131,-1.37156 3.474609,-1.37156 z m -0.09144,3.37403 q -0.548623,0 -0.932658,0.40232 -0.384036,0.39318 -0.384036,0.96923 0,0.56691 0.384036,0.96924 0.393179,0.40232 0.932658,0.40232 0.548622,0 0.932658,-0.40232 0.393179,-0.40233 0.393179,-0.96924 0,-0.57605 -0.384035,-0.96923 -0.384036,-0.40232 -0.941802,-0.40232 z"/>
      <path
        id="path870"
        style="font-size:18.72631264px;fill:#ffffff;stroke-width:0.3901315"
        d="m 86.086801,227.92501 v 7.47041 q 0,1.8196 1.30755,1.8196 0.557766,0 0.941802,-0.37489 0.393179,-0.38404 0.393179,-0.92352 0,-0.55776 -0.365748,-0.93265 -0.365749,-0.38404 -0.896084,-0.38404 -0.374892,0 -0.859508,0.32917 v -3.7672 q 0.603485,-0.0549 0.914371,-0.0549 1.929322,0 3.300878,1.38985 1.3807,1.38984 1.3807,3.34659 0,2.00248 -1.398987,3.37403 -1.398988,1.37156 -3.438034,1.37156 -1.024096,0 -2.002472,-0.44804 -0.969233,-0.44805 -1.600149,-1.20697 -1.097245,-1.3167 -1.097245,-3.41061 v -7.59842 z"/>
      <path
        id="path872"
        style="font-size:18.72631264px;fill:#ffffff;stroke-width:0.3901315"
        d="m 98.019338,231.09788 q 1.938466,0 3.319162,1.39899 1.38985,1.38984 1.38985,3.33745 0,1.97504 -1.40813,3.36488 -1.398991,1.38985 -3.383175,1.38985 -1.984185,0 -3.392316,-1.38985 -1.408131,-1.39898 -1.408131,-3.36488 0,-2.00247 1.408131,-3.36488 1.408131,-1.37156 3.474609,-1.37156 z m -0.09144,3.37403 q -0.548622,0 -0.932658,0.40232 -0.384036,0.39318 -0.384036,0.96923 0,0.56691 0.384036,0.96924 0.393179,0.40232 0.932658,0.40232 0.548623,0 0.932658,-0.40232 0.39318,-0.40233 0.39318,-0.96924 0,-0.57605 -0.384036,-0.96923 -0.384036,-0.40232 -0.941802,-0.40232 z"/>
      <path
        id="path874"
        style="font-size:18.72631264px;fill:#ffffff;stroke-width:0.3901315"
        d="m 108.75405,231.2899 h 3.41975 v 2.00247 q 0,0.85951 -0.25603,1.38984 -0.24688,0.52119 -0.85951,0.92352 0.62178,0.42061 0.86866,0.92351 0.24688,0.50291 0.24688,1.3167 v 2.56023 h -3.41975 v -2.75225 q 0,-0.9418 -0.65835,-0.9418 -0.64006,0 -0.64006,0.81379 v 2.88026 h -3.41974 v -2.43222 q 0,-0.84122 0.30174,-1.37156 0.31088,-0.53033 1.06981,-0.99666 -0.75893,-0.49376 -1.06981,-1.04239 -0.30174,-0.54862 -0.30174,-1.39898 v -1.87446 h 3.41974 v 2.30421 q 0,0.35661 0.18288,0.5852 0.18287,0.22859 0.46633,0.22859 0.6492,0 0.6492,-0.81379 z"/>
    </g>
    <path
      id="path2073"
      d="m 60.927026,221.8589 c -1.61218,-4.9e-4 -3.69775,-0.23399 -4.90229,-0.54887 -3.05004,-0.79731 -4.79388,-2.12132 -6.0592,-4.60048 -0.5033,-0.9861 -0.57288,-1.24774 -0.68402,-2.57201 -0.15875,-1.89221 0.0871,-2.95406 0.98035,-4.23296 0.9114,-1.30495 1.98114,-1.98921 3.3984,-2.17379 1.09206,-0.14265 2.37065,0.11626 2.86973,0.5802 0.38925,0.36186 0.13843,0.57383 -0.43088,0.36414 -0.28119,-0.10357 -0.84881,-0.14862 -1.26139,-0.10011 -1.05934,0.12453 -1.6842,0.67368 -2.06883,1.81814 -0.82134,2.44392 0.39767,4.56118 2.4692,4.28867 1.45327,-0.19117 3.98791,-1.79253 7.96744,-5.03373 3.28764,-2.67769 4.47504,-3.51091 6.27616,-4.40412 1.48249,-0.73519 1.68103,-0.79472 3.44424,-1.03284 1.56896,-0.21244 2.04529,-0.21872 2.95023,-0.0424 1.29922,0.25319 2.63876,0.71403 3.51095,1.20784 l 0.64279,0.36394 0.82903,-0.75641 c 1.76836,-1.61346 4.08386,-2.53918 6.88856,-2.75401 3.44877,-0.26415 5.66512,0.44259 12.509054,3.98883 1.71416,0.8882 3.58254,1.55119 4.63797,1.64576 1.6261,0.1457 3.46826,-0.7957 3.77163,-1.92742 0.16978,-0.63338 -0.0264,-1.891 -0.39344,-2.52237 -0.69182,-1.19008 -2.33428,-2.08414 -3.23219,-1.75942 -0.23138,0.0837 -0.66756,0.3857 -0.96929,0.67117 -0.9662,0.91412 -1.14619,0.69134 -0.37273,-0.46136 1.30978,-1.95201 3.95334,-2.16312 6.13356,-0.48983 3.35675,2.57629 3.72778,6.62587 0.94122,10.273 -1.60042,2.09468 -3.93169,3.45964 -7.49827,4.39027 -6.799724,1.77426 -16.946394,0.51961 -21.331854,-2.63772 l -0.88275,-0.63554 -0.64815,0.78855 c -1.75118,2.13055 -4.65336,4.00974 -8.7606,5.67254 -3.93168,1.59174 -8.17431,2.63307 -10.72467,2.63232 z"
      style="fill:#ffffff;stroke-width:0.15104373"/>
  </g>
</svg>
